<svg width="154" height="107" viewBox="0 0 154 107" fill="none" xmlns="http://www.w3.org/2000/svg">
<path d="M9.63486 105.411C9.63486 105.654 9.6223 105.86 9.59718 106.029C9.58043 106.188 9.55112 106.319 9.50924 106.42C9.46737 106.521 9.41294 106.596 9.34594 106.647C9.28732 106.689 9.22032 106.71 9.14495 106.71H0.979816C0.703458 106.71 0.468972 106.63 0.276358 106.47C0.0921195 106.302 0 106.033 0 105.663V91.4331C0 91.0631 0.0921195 90.7982 0.276358 90.6384C0.468972 90.4702 0.703458 90.3861 0.979816 90.3861H9.09471C9.17008 90.3861 9.23707 90.4071 9.29569 90.4492C9.35432 90.4912 9.40456 90.5669 9.44644 90.6762C9.48831 90.7772 9.51762 90.9117 9.53437 91.0799C9.55949 91.2397 9.57205 91.4458 9.57205 91.6981C9.57205 91.9335 9.55949 92.1354 9.53437 92.3036C9.51762 92.4634 9.48831 92.5937 9.44644 92.6946C9.40456 92.7956 9.35432 92.8712 9.29569 92.9217C9.23707 92.9638 9.17008 92.9848 9.09471 92.9848H3.29118V96.9711H8.20282C8.27819 96.9711 8.34519 96.9963 8.40381 97.0468C8.47081 97.0888 8.52524 97.1603 8.56711 97.2613C8.60899 97.3538 8.6383 97.4841 8.65505 97.6523C8.68017 97.8121 8.69273 98.0097 8.69273 98.2452C8.69273 98.4891 8.68017 98.6909 8.65505 98.8507C8.6383 99.0105 8.60899 99.1409 8.56711 99.2418C8.52524 99.3343 8.47081 99.4016 8.40381 99.4436C8.34519 99.4857 8.27819 99.5067 8.20282 99.5067H3.29118V104.111H9.14495C9.22032 104.111 9.28732 104.136 9.34594 104.187C9.41294 104.229 9.46737 104.3 9.50924 104.401C9.55112 104.502 9.58043 104.637 9.59718 104.805C9.6223 104.965 9.63486 105.167 9.63486 105.411Z" fill="#C4A43B"/>
<path d="M23.0006 106.281C23.0006 106.365 22.9796 106.441 22.9378 106.508C22.8959 106.567 22.8205 106.617 22.7116 106.659C22.6111 106.701 22.473 106.731 22.2971 106.748C22.1296 106.773 21.9161 106.786 21.6565 106.786C21.3801 106.786 21.154 106.773 20.9781 106.748C20.8106 106.731 20.6766 106.701 20.5761 106.659C20.4757 106.617 20.4045 106.567 20.3626 106.508C20.3207 106.441 20.2998 106.365 20.2998 106.281V104.982C19.6801 105.654 19.0478 106.159 18.403 106.495C17.7665 106.832 17.1049 107 16.4182 107C15.6478 107 14.9987 106.874 14.4711 106.622C13.9519 106.369 13.529 106.024 13.2024 105.587C12.8842 105.15 12.6539 104.645 12.5115 104.073C12.3775 103.493 12.3105 102.774 12.3105 101.916V95.0284C12.3105 94.9443 12.3315 94.8728 12.3733 94.8139C12.4236 94.7467 12.5073 94.692 12.6246 94.65C12.7502 94.6079 12.9135 94.5785 13.1145 94.5616C13.3238 94.5364 13.5793 94.5238 13.8807 94.5238C14.1906 94.5238 14.446 94.5364 14.647 94.5616C14.848 94.5785 15.0071 94.6079 15.1243 94.65C15.25 94.692 15.3379 94.7467 15.3881 94.8139C15.4384 94.8728 15.4635 94.9443 15.4635 95.0284V101.386C15.4635 101.975 15.5012 102.425 15.5766 102.736C15.6519 103.047 15.765 103.316 15.9157 103.544C16.0749 103.762 16.2717 103.935 16.5061 104.061C16.749 104.178 17.0295 104.237 17.3478 104.237C17.7498 104.237 18.1517 104.09 18.5537 103.796C18.9641 103.501 19.3995 103.073 19.8601 102.509V95.0284C19.8601 94.9443 19.8811 94.8728 19.9229 94.8139C19.9732 94.7467 20.0569 94.692 20.1742 94.65C20.2998 94.6079 20.4631 94.5785 20.6641 94.5616C20.8651 94.5364 21.1205 94.5238 21.4303 94.5238C21.7402 94.5238 21.9956 94.5364 22.1966 94.5616C22.3976 94.5785 22.5567 94.6079 22.674 94.65C22.7912 94.692 22.8749 94.7467 22.9252 94.8139C22.9754 94.8728 23.0006 94.9443 23.0006 95.0284V106.281Z" fill="#C4A43B"/>
<path d="M33.3891 96.0754C33.3891 96.3782 33.3808 96.6263 33.364 96.8197C33.3473 97.0132 33.3221 97.1645 33.2886 97.2739C33.2551 97.3832 33.2091 97.4589 33.1505 97.5009C33.1002 97.543 33.0332 97.564 32.9495 97.564C32.8825 97.564 32.8071 97.5514 32.7234 97.5262C32.6396 97.4925 32.5433 97.4589 32.4344 97.4252C32.3339 97.3916 32.2209 97.3622 32.0953 97.3369C31.9697 97.3033 31.8315 97.2865 31.6807 97.2865C31.5049 97.2865 31.329 97.3243 31.1531 97.4C30.9773 97.4673 30.793 97.5766 30.6004 97.728C30.4162 97.8794 30.2194 98.0812 30.01 98.3335C29.809 98.5858 29.5913 98.897 29.3568 99.267V106.281C29.3568 106.365 29.3317 106.441 29.2814 106.508C29.2312 106.567 29.1433 106.617 29.0176 106.659C28.9004 106.701 28.7413 106.731 28.5403 106.748C28.3393 106.773 28.0839 106.786 27.774 106.786C27.4642 106.786 27.2087 106.773 27.0078 106.748C26.8068 106.731 26.6435 106.701 26.5179 106.659C26.4006 106.617 26.3169 106.567 26.2666 106.508C26.2164 106.441 26.1912 106.365 26.1912 106.281V95.0284C26.1912 94.9443 26.2122 94.8728 26.2541 94.8139C26.2959 94.7467 26.3713 94.692 26.4802 94.65C26.589 94.6079 26.7272 94.5785 26.8947 94.5616C27.0706 94.5364 27.2883 94.5238 27.5479 94.5238C27.8159 94.5238 28.0378 94.5364 28.2137 94.5616C28.3896 94.5785 28.5235 94.6079 28.6157 94.65C28.7162 94.692 28.7873 94.7467 28.8292 94.8139C28.8711 94.8728 28.892 94.9443 28.892 95.0284V96.4287C29.1851 96.0082 29.4615 95.6634 29.7211 95.3942C29.9807 95.1167 30.2278 94.898 30.4622 94.7383C30.6967 94.5785 30.9312 94.4691 31.1657 94.4103C31.4002 94.343 31.6347 94.3093 31.8692 94.3093C31.978 94.3093 32.0953 94.3178 32.2209 94.3346C32.3465 94.343 32.4763 94.364 32.6103 94.3977C32.7443 94.4229 32.8615 94.4565 32.962 94.4986C33.0625 94.5322 33.1337 94.5701 33.1756 94.6121C33.2258 94.6542 33.2593 94.7004 33.2761 94.7509C33.3012 94.8013 33.3221 94.8728 33.3389 94.9653C33.3556 95.0494 33.3682 95.1798 33.3766 95.3564C33.3849 95.533 33.3891 95.7727 33.3891 96.0754Z" fill="#C4A43B"/>
<path d="M46.3403 100.541C46.3403 101.5 46.2147 102.375 45.9634 103.165C45.7122 103.956 45.3312 104.637 44.8203 105.209C44.3095 105.781 43.6688 106.222 42.8984 106.533C42.1279 106.844 41.2277 107 40.1976 107C39.201 107 38.3343 106.861 37.5973 106.584C36.8604 106.306 36.249 105.903 35.7633 105.373C35.2776 104.843 34.9175 104.191 34.683 103.417C34.4485 102.644 34.3313 101.761 34.3313 100.768C34.3313 99.8095 34.4569 98.9348 34.7081 98.1443C34.9677 97.3454 35.353 96.6641 35.8638 96.1007C36.3746 95.5288 37.0111 95.0873 37.7732 94.7761C38.5436 94.4649 39.4439 94.3093 40.474 94.3093C41.4789 94.3093 42.3498 94.4481 43.0868 94.7256C43.8238 94.9948 44.4309 95.3942 44.9083 95.9241C45.394 96.4539 45.7541 97.1057 45.9886 97.8794C46.223 98.6531 46.3403 99.5404 46.3403 100.541ZM43.0868 100.667C43.0868 100.112 43.0407 99.6034 42.9486 99.1409C42.8649 98.6699 42.7183 98.262 42.509 97.9172C42.2996 97.5724 42.0191 97.3033 41.6673 97.1099C41.324 96.9164 40.8885 96.8197 40.3609 96.8197C39.8919 96.8197 39.4816 96.908 39.1298 97.0846C38.7781 97.2528 38.4892 97.5051 38.2631 97.8415C38.037 98.1695 37.8653 98.569 37.7481 99.04C37.6392 99.5025 37.5848 100.032 37.5848 100.629C37.5848 101.185 37.6308 101.698 37.7229 102.168C37.8151 102.631 37.9616 103.035 38.1626 103.38C38.372 103.724 38.6525 103.993 39.0042 104.187C39.356 104.372 39.7914 104.464 40.3107 104.464C40.788 104.464 41.2025 104.38 41.5543 104.212C41.906 104.035 42.1949 103.783 42.421 103.455C42.6471 103.127 42.8146 102.732 42.9235 102.269C43.0324 101.798 43.0868 101.264 43.0868 100.667Z" fill="#C4A43B"/>
<path d="M58.6759 101.815C58.6759 102.673 58.5168 103.426 58.1986 104.073C57.8804 104.721 57.4491 105.263 56.9047 105.701C56.3604 106.13 55.7239 106.453 54.9953 106.672C54.2668 106.891 53.4879 107 52.6589 107C52.0978 107 51.5744 106.954 51.0886 106.861C50.6113 106.769 50.1884 106.659 49.8199 106.533C49.4514 106.399 49.1416 106.26 48.8903 106.117C48.6475 105.974 48.4716 105.848 48.3627 105.739C48.2539 105.629 48.1743 105.474 48.1241 105.272C48.0822 105.062 48.0613 104.763 48.0613 104.376C48.0613 104.115 48.0696 103.897 48.0864 103.72C48.1031 103.544 48.1283 103.401 48.1617 103.291C48.2036 103.182 48.2539 103.106 48.3125 103.064C48.3795 103.014 48.4549 102.988 48.5386 102.988C48.6558 102.988 48.8191 103.06 49.0285 103.203C49.2462 103.337 49.5226 103.489 49.8576 103.657C50.1926 103.825 50.5904 103.981 51.0509 104.124C51.5199 104.258 52.0601 104.326 52.6714 104.326C53.0734 104.326 53.4335 104.279 53.7517 104.187C54.07 104.086 54.3379 103.947 54.5557 103.771C54.7818 103.594 54.9535 103.375 55.0707 103.115C55.188 102.854 55.2466 102.564 55.2466 102.244C55.2466 101.874 55.1461 101.559 54.9451 101.298C54.7441 101.029 54.4803 100.793 54.1537 100.592C53.8355 100.381 53.4712 100.188 53.0608 100.011C52.6505 99.8263 52.2276 99.6329 51.7921 99.431C51.3566 99.2292 50.9337 99.0021 50.5234 98.7498C50.113 98.4891 49.7445 98.1821 49.4179 97.8289C49.0997 97.4673 48.8401 97.0426 48.6391 96.5548C48.4381 96.067 48.3376 95.4825 48.3376 94.8013C48.3376 94.0192 48.48 93.3338 48.7647 92.7451C49.0578 92.148 49.4472 91.656 49.933 91.2691C50.427 90.8739 51.0049 90.5795 51.6665 90.3861C52.3364 90.1927 53.0441 90.0959 53.7894 90.0959C54.1746 90.0959 54.5599 90.1254 54.9451 90.1843C55.3303 90.2431 55.6904 90.323 56.0254 90.4239C56.3604 90.5249 56.6577 90.6384 56.9173 90.7645C57.1769 90.8907 57.3486 90.9958 57.4323 91.0799C57.5161 91.164 57.5705 91.2355 57.5956 91.2944C57.6291 91.3532 57.6542 91.4331 57.671 91.5341C57.6961 91.6266 57.7129 91.7485 57.7212 91.8999C57.7296 92.0429 57.7338 92.2237 57.7338 92.4423C57.7338 92.6862 57.7254 92.8923 57.7087 93.0605C57.7003 93.2287 57.6794 93.3674 57.6459 93.4768C57.6207 93.5861 57.5789 93.666 57.5203 93.7164C57.47 93.7669 57.3988 93.7921 57.3067 93.7921C57.2146 93.7921 57.068 93.7333 56.867 93.6155C56.666 93.4978 56.419 93.3716 56.1259 93.2371C55.8328 93.0941 55.4936 92.968 55.1084 92.8586C54.7232 92.7409 54.3003 92.682 53.8397 92.682C53.4796 92.682 53.1655 92.7283 52.8975 92.8208C52.6295 92.9049 52.4034 93.0268 52.2192 93.1866C52.0433 93.338 51.9093 93.523 51.8172 93.7417C51.7335 93.9603 51.6916 94.1916 51.6916 94.4355C51.6916 94.7971 51.7879 95.1125 51.9805 95.3816C52.1815 95.6423 52.4453 95.8778 52.7719 96.0881C53.1069 96.2899 53.4837 96.4833 53.9025 96.6683C54.3212 96.845 54.7483 97.0342 55.1838 97.236C55.6192 97.4379 56.0463 97.6691 56.4651 97.9298C56.8838 98.1821 57.2565 98.4891 57.5831 98.8507C57.9097 99.204 58.1735 99.6245 58.3745 100.112C58.5754 100.592 58.6759 101.159 58.6759 101.815Z" fill="#C4A43B"/>
<path d="M71.3633 100.327C71.3633 100.714 71.2754 100.999 71.0995 101.185C70.932 101.37 70.6975 101.462 70.396 101.462H63.575C63.575 101.941 63.6294 102.379 63.7383 102.774C63.8556 103.161 64.0356 103.493 64.2785 103.771C64.5297 104.04 64.8479 104.246 65.2332 104.389C65.6268 104.532 66.0957 104.603 66.6401 104.603C67.1928 104.603 67.6785 104.565 68.0972 104.49C68.516 104.406 68.8761 104.317 69.1776 104.225C69.4874 104.124 69.7428 104.035 69.9438 103.96C70.1448 103.876 70.3081 103.834 70.4337 103.834C70.5091 103.834 70.5719 103.85 70.6222 103.884C70.6724 103.909 70.7143 103.96 70.7478 104.035C70.7813 104.111 70.8022 104.221 70.8106 104.363C70.8273 104.498 70.8357 104.67 70.8357 104.881C70.8357 105.066 70.8315 105.226 70.8231 105.36C70.8148 105.486 70.8022 105.596 70.7855 105.688C70.7687 105.781 70.7436 105.86 70.7101 105.928C70.6766 105.987 70.6305 106.045 70.5719 106.104C70.5217 106.163 70.3751 106.243 70.1322 106.344C69.8894 106.445 69.5795 106.546 69.2027 106.647C68.8258 106.739 68.3945 106.819 67.9088 106.886C67.4231 106.962 66.9039 107 66.3512 107C65.3546 107 64.4795 106.874 63.7258 106.622C62.9804 106.369 62.3565 105.987 61.8541 105.474C61.3516 104.961 60.9747 104.313 60.7235 103.531C60.4806 102.749 60.3592 101.832 60.3592 100.781C60.3592 99.78 60.489 98.8802 60.7486 98.0812C61.0082 97.2739 61.3851 96.5927 61.8792 96.0376C62.3733 95.4741 62.972 95.0452 63.6755 94.7509C64.3873 94.4565 65.1871 94.3093 66.0748 94.3093C67.0127 94.3093 67.8125 94.4481 68.4741 94.7256C69.1441 95.0032 69.6926 95.39 70.1197 95.8862C70.5468 96.374 70.8608 96.9543 71.0618 97.6271C71.2628 98.2999 71.3633 99.0316 71.3633 99.8221V100.327ZM68.2982 99.4184C68.3234 98.527 68.1433 97.8289 67.7581 97.3243C67.3812 96.8113 66.795 96.5548 65.9994 96.5548C65.5975 96.5548 65.2457 96.6305 64.9442 96.7819C64.6511 96.9333 64.4041 97.1393 64.2031 97.4C64.0105 97.6523 63.8597 97.9551 63.7509 98.3083C63.6504 98.6531 63.5918 99.0231 63.575 99.4184H68.2982Z" fill="#C4A43B"/>
<path d="M81.174 96.0754C81.174 96.3782 81.1656 96.6263 81.1489 96.8197C81.1321 97.0132 81.107 97.1645 81.0735 97.2739C81.04 97.3832 80.994 97.4589 80.9353 97.5009C80.8851 97.543 80.8181 97.564 80.7344 97.564C80.6674 97.564 80.592 97.5514 80.5083 97.5262C80.4245 97.4925 80.3282 97.4589 80.2193 97.4252C80.1188 97.3916 80.0058 97.3622 79.8802 97.3369C79.7545 97.3033 79.6164 97.2865 79.4656 97.2865C79.2898 97.2865 79.1139 97.3243 78.938 97.4C78.7622 97.4673 78.5779 97.5766 78.3853 97.728C78.2011 97.8794 78.0043 98.0812 77.7949 98.3335C77.5939 98.5858 77.3762 98.897 77.1417 99.267V106.281C77.1417 106.365 77.1166 106.441 77.0663 106.508C77.0161 106.567 76.9282 106.617 76.8025 106.659C76.6853 106.701 76.5262 106.731 76.3252 106.748C76.1242 106.773 75.8688 106.786 75.5589 106.786C75.2491 106.786 74.9936 106.773 74.7927 106.748C74.5917 106.731 74.4284 106.701 74.3027 106.659C74.1855 106.617 74.1018 106.567 74.0515 106.508C74.0013 106.441 73.9761 106.365 73.9761 106.281V95.0284C73.9761 94.9443 73.9971 94.8728 74.0389 94.8139C74.0808 94.7467 74.1562 94.692 74.2651 94.65C74.3739 94.6079 74.5121 94.5785 74.6796 94.5616C74.8555 94.5364 75.0732 94.5238 75.3328 94.5238C75.6008 94.5238 75.8227 94.5364 75.9986 94.5616C76.1744 94.5785 76.3084 94.6079 76.4006 94.65C76.5011 94.692 76.5722 94.7467 76.6141 94.8139C76.656 94.8728 76.6769 94.9443 76.6769 95.0284V96.4287C76.97 96.0082 77.2464 95.6634 77.506 95.3942C77.7656 95.1167 78.0126 94.898 78.2471 94.7383C78.4816 94.5785 78.7161 94.4691 78.9506 94.4103C79.1851 94.343 79.4196 94.3093 79.6541 94.3093C79.7629 94.3093 79.8802 94.3178 80.0058 94.3346C80.1314 94.343 80.2612 94.364 80.3952 94.3977C80.5292 94.4229 80.6464 94.4565 80.7469 94.4986C80.8474 94.5322 80.9186 94.5701 80.9605 94.6121C81.0107 94.6542 81.0442 94.7004 81.061 94.7509C81.0861 94.8013 81.107 94.8728 81.1238 94.9653C81.1405 95.0494 81.1531 95.1798 81.1615 95.3564C81.1698 95.533 81.174 95.7727 81.174 96.0754Z" fill="#C4A43B"/>
<path d="M89.7537 105.171C89.7537 105.541 89.7286 105.827 89.6783 106.029C89.6365 106.222 89.5778 106.361 89.5025 106.445C89.4271 106.521 89.314 106.592 89.1633 106.659C89.0209 106.718 88.8493 106.769 88.6483 106.811C88.4557 106.861 88.2421 106.899 88.0076 106.924C87.7815 106.95 87.5512 106.962 87.3167 106.962C86.6886 106.962 86.1443 106.882 85.6837 106.722C85.2231 106.563 84.8421 106.319 84.5406 105.991C84.2391 105.654 84.0172 105.234 83.8748 104.729C83.7324 104.225 83.6613 103.628 83.6613 102.938V97.1729H82.3171C82.158 97.1729 82.0366 97.0762 81.9529 96.8828C81.8691 96.681 81.8272 96.3488 81.8272 95.8862C81.8272 95.6423 81.8356 95.4363 81.8524 95.2681C81.8775 95.0999 81.911 94.9695 81.9529 94.877C81.9947 94.7761 82.045 94.7046 82.1036 94.6626C82.1706 94.6205 82.246 94.5995 82.3297 94.5995H83.6613V92.0891C83.6613 92.005 83.6822 91.9293 83.7241 91.862C83.7743 91.7948 83.8581 91.7401 83.9753 91.6981C84.1009 91.6476 84.2642 91.614 84.4652 91.5971C84.6746 91.5719 84.93 91.5593 85.2315 91.5593C85.5413 91.5593 85.7967 91.5719 85.9977 91.5971C86.2071 91.614 86.3704 91.6476 86.4876 91.6981C86.6049 91.7401 86.6886 91.7948 86.7389 91.862C86.7891 91.9293 86.8142 92.005 86.8142 92.0891V94.5995H89.2512C89.335 94.5995 89.4062 94.6205 89.4648 94.6626C89.5318 94.7046 89.5862 94.7761 89.6281 94.877C89.67 94.9695 89.6993 95.0999 89.716 95.2681C89.7411 95.4363 89.7537 95.6423 89.7537 95.8862C89.7537 96.3488 89.7118 96.681 89.6281 96.8828C89.5443 97.0762 89.4229 97.1729 89.2638 97.1729H86.8142V102.459C86.8142 103.073 86.9106 103.535 87.1032 103.846C87.2958 104.149 87.6391 104.3 88.1332 104.3C88.3007 104.3 88.4515 104.288 88.5855 104.263C88.7195 104.229 88.8367 104.195 88.9372 104.162C89.0461 104.12 89.134 104.086 89.201 104.061C89.2764 104.027 89.3433 104.01 89.402 104.01C89.4522 104.01 89.4983 104.027 89.5402 104.061C89.5904 104.086 89.6281 104.145 89.6532 104.237C89.6783 104.321 89.6993 104.439 89.716 104.591C89.7411 104.742 89.7537 104.935 89.7537 105.171Z" fill="#C4A43B"/>
<path d="M94.7462 106.281C94.7462 106.365 94.7211 106.441 94.6709 106.508C94.6206 106.567 94.5327 106.617 94.4071 106.659C94.2898 106.701 94.1307 106.731 93.9297 106.748C93.7287 106.773 93.4733 106.786 93.1634 106.786C92.8536 106.786 92.5982 106.773 92.3972 106.748C92.1962 106.731 92.0329 106.701 91.9073 106.659C91.79 106.617 91.7063 106.567 91.656 106.508C91.6058 106.441 91.5807 106.365 91.5807 106.281V95.0536C91.5807 94.9695 91.6058 94.898 91.656 94.8392C91.7063 94.7719 91.79 94.7172 91.9073 94.6752C92.0329 94.6247 92.1962 94.5869 92.3972 94.5616C92.5982 94.5364 92.8536 94.5238 93.1634 94.5238C93.4733 94.5238 93.7287 94.5364 93.9297 94.5616C94.1307 94.5869 94.2898 94.6247 94.4071 94.6752C94.5327 94.7172 94.6206 94.7719 94.6709 94.8392C94.7211 94.898 94.7462 94.9695 94.7462 95.0536V106.281ZM94.9849 91.2187C94.9849 91.8578 94.8551 92.2994 94.5955 92.5433C94.3359 92.7871 93.8543 92.9091 93.1509 92.9091C92.439 92.9091 91.9575 92.7913 91.7063 92.5559C91.4634 92.3204 91.342 91.8957 91.342 91.2818C91.342 90.6426 91.4676 90.2011 91.7188 89.9572C91.9785 89.7049 92.4642 89.5787 93.176 89.5787C93.8795 89.5787 94.3568 89.7007 94.608 89.9446C94.8593 90.18 94.9849 90.6048 94.9849 91.2187Z" fill="#C4A43B"/>
<path d="M108.539 106.281C108.539 106.365 108.518 106.441 108.476 106.508C108.434 106.567 108.359 106.617 108.25 106.659C108.15 106.701 108.011 106.731 107.836 106.748C107.668 106.773 107.455 106.786 107.195 106.786C106.919 106.786 106.692 106.773 106.517 106.748C106.349 106.731 106.215 106.701 106.115 106.659C106.014 106.617 105.943 106.567 105.901 106.508C105.859 106.441 105.838 106.365 105.838 106.281V104.982C105.219 105.654 104.586 106.159 103.941 106.495C103.305 106.832 102.643 107 101.957 107C101.186 107 100.537 106.874 100.01 106.622C99.4904 106.369 99.0675 106.024 98.7409 105.587C98.4226 105.15 98.1923 104.645 98.05 104.073C97.916 103.493 97.849 102.774 97.849 101.916V95.0284C97.849 94.9443 97.8699 94.8728 97.9118 94.8139C97.962 94.7467 98.0458 94.692 98.163 94.65C98.2886 94.6079 98.4519 94.5785 98.6529 94.5616C98.8623 94.5364 99.1177 94.5238 99.4192 94.5238C99.729 94.5238 99.9845 94.5364 100.185 94.5616C100.386 94.5785 100.546 94.6079 100.663 94.65C100.788 94.692 100.876 94.7467 100.927 94.8139C100.977 94.8728 101.002 94.9443 101.002 95.0284V101.386C101.002 101.975 101.04 102.425 101.115 102.736C101.19 103.047 101.303 103.316 101.454 103.544C101.613 103.762 101.81 103.935 102.045 104.061C102.287 104.178 102.568 104.237 102.886 104.237C103.288 104.237 103.69 104.09 104.092 103.796C104.503 103.501 104.938 103.073 105.399 102.509V95.0284C105.399 94.9443 105.42 94.8728 105.461 94.8139C105.512 94.7467 105.595 94.692 105.713 94.65C105.838 94.6079 106.002 94.5785 106.203 94.5616C106.404 94.5364 106.659 94.5238 106.969 94.5238C107.279 94.5238 107.534 94.5364 107.735 94.5616C107.936 94.5785 108.095 94.6079 108.212 94.65C108.33 94.692 108.413 94.7467 108.464 94.8139C108.514 94.8728 108.539 94.9443 108.539 95.0284V106.281Z" fill="#C4A43B"/>
<path d="M129.555 106.281C129.555 106.365 129.53 106.441 129.479 106.508C129.429 106.567 129.345 106.617 129.228 106.659C129.111 106.701 128.952 106.731 128.751 106.748C128.55 106.773 128.294 106.786 127.985 106.786C127.666 106.786 127.407 106.773 127.206 106.748C127.005 106.731 126.841 106.701 126.716 106.659C126.599 106.617 126.515 106.567 126.465 106.508C126.423 106.441 126.402 106.365 126.402 106.281V99.6076C126.402 99.2292 126.364 98.8844 126.289 98.5732C126.222 98.262 126.113 97.9971 125.962 97.7785C125.82 97.5514 125.636 97.379 125.409 97.2613C125.192 97.1351 124.928 97.072 124.618 97.072C124.241 97.072 123.86 97.2192 123.475 97.5136C123.09 97.8079 122.671 98.2368 122.219 98.8003V106.281C122.219 106.365 122.194 106.441 122.143 106.508C122.093 106.567 122.005 106.617 121.88 106.659C121.762 106.701 121.603 106.731 121.402 106.748C121.201 106.773 120.95 106.786 120.649 106.786C120.339 106.786 120.083 106.773 119.882 106.748C119.681 106.731 119.518 106.701 119.392 106.659C119.275 106.617 119.191 106.567 119.141 106.508C119.091 106.441 119.066 106.365 119.066 106.281V99.6076C119.066 99.2292 119.028 98.8844 118.953 98.5732C118.886 98.262 118.781 97.9971 118.639 97.7785C118.496 97.5514 118.312 97.379 118.086 97.2613C117.86 97.1351 117.596 97.072 117.295 97.072C116.909 97.072 116.524 97.2192 116.139 97.5136C115.754 97.8079 115.339 98.2368 114.895 98.8003V106.281C114.895 106.365 114.87 106.441 114.82 106.508C114.77 106.567 114.682 106.617 114.556 106.659C114.439 106.701 114.28 106.731 114.079 106.748C113.878 106.773 113.622 106.786 113.312 106.786C113.003 106.786 112.747 106.773 112.546 106.748C112.345 106.731 112.182 106.701 112.056 106.659C111.939 106.617 111.855 106.567 111.805 106.508C111.755 106.441 111.73 106.365 111.73 106.281V95.0284C111.73 94.9443 111.751 94.8728 111.793 94.8139C111.834 94.7467 111.91 94.692 112.019 94.65C112.128 94.6079 112.266 94.5785 112.433 94.5616C112.609 94.5364 112.827 94.5238 113.086 94.5238C113.354 94.5238 113.576 94.5364 113.752 94.5616C113.928 94.5785 114.062 94.6079 114.154 94.65C114.255 94.692 114.326 94.7467 114.368 94.8139C114.41 94.8728 114.43 94.9443 114.43 95.0284V96.3277C115.05 95.6549 115.666 95.1503 116.277 94.8139C116.897 94.4775 117.542 94.3093 118.212 94.3093C118.672 94.3093 119.087 94.3598 119.455 94.4607C119.824 94.5532 120.15 94.692 120.435 94.877C120.728 95.0536 120.979 95.2681 121.189 95.5204C121.398 95.7727 121.574 96.0544 121.716 96.3656C122.051 96.004 122.378 95.6928 122.696 95.4321C123.023 95.1714 123.341 94.9611 123.651 94.8013C123.969 94.6331 124.283 94.5112 124.593 94.4355C124.911 94.3514 125.234 94.3093 125.56 94.3093C126.306 94.3093 126.934 94.4355 127.444 94.6878C127.955 94.9401 128.366 95.2849 128.676 95.7222C128.994 96.1511 129.22 96.6557 129.354 97.236C129.488 97.8163 129.555 98.4302 129.555 99.0778V106.281Z" fill="#C4A43B"/>
<path d="M138.21 100.365C138.21 100.852 138.164 101.193 138.072 101.386C137.98 101.58 137.833 101.676 137.632 101.676H132.406C132.197 101.676 132.046 101.58 131.954 101.386C131.862 101.185 131.816 100.844 131.816 100.365C131.816 99.8936 131.862 99.5614 131.954 99.368C132.046 99.1745 132.197 99.0778 132.406 99.0778H137.632C137.733 99.0778 137.816 99.0988 137.883 99.1409C137.959 99.1829 138.021 99.2544 138.072 99.3553C138.122 99.4563 138.155 99.5908 138.172 99.759C138.197 99.9272 138.21 100.129 138.21 100.365Z" fill="#C4A43B"/>
<path d="M154 100.629C154 101.63 153.853 102.526 153.56 103.316C153.267 104.107 152.836 104.776 152.266 105.322C151.697 105.869 150.994 106.285 150.156 106.571C149.319 106.857 148.356 107 147.267 107C146.245 107 145.328 106.874 144.516 106.622C143.704 106.361 143.017 105.97 142.456 105.448C141.895 104.927 141.463 104.279 141.162 103.506C140.869 102.724 140.722 101.811 140.722 100.768V90.8402C140.722 90.7561 140.747 90.6804 140.798 90.6132C140.848 90.5459 140.936 90.4912 141.061 90.4492C141.195 90.4071 141.367 90.3735 141.576 90.3482C141.786 90.323 142.054 90.3104 142.38 90.3104C142.699 90.3104 142.962 90.323 143.172 90.3482C143.381 90.3735 143.549 90.4071 143.674 90.4492C143.8 90.4912 143.888 90.5459 143.938 90.6132C143.997 90.6804 144.026 90.7561 144.026 90.8402V100.478C144.026 101.126 144.106 101.689 144.265 102.168C144.424 102.639 144.65 103.03 144.943 103.342C145.244 103.653 145.6 103.888 146.011 104.048C146.429 104.199 146.894 104.275 147.405 104.275C147.924 104.275 148.389 104.195 148.799 104.035C149.21 103.876 149.557 103.644 149.842 103.342C150.127 103.03 150.345 102.652 150.495 102.206C150.654 101.752 150.734 101.239 150.734 100.667V90.8402C150.734 90.7561 150.759 90.6804 150.809 90.6132C150.86 90.5459 150.947 90.4912 151.073 90.4492C151.199 90.4071 151.366 90.3735 151.576 90.3482C151.793 90.323 152.061 90.3104 152.38 90.3104C152.698 90.3104 152.957 90.323 153.158 90.3482C153.368 90.3735 153.535 90.4071 153.661 90.4492C153.786 90.4912 153.874 90.5459 153.925 90.6132C153.975 90.6804 154 90.7561 154 90.8402V100.629Z" fill="#C4A43B"/>
<path fill-rule="evenodd" clip-rule="evenodd" d="M115.868 39.8936C115.843 41.667 115.699 43.4596 115.427 45.2624C115.156 47.0652 114.767 48.8211 114.269 50.5233L107.486 48.5391C107.895 47.142 108.215 45.6978 108.439 44.2111C108.662 42.7244 108.781 41.2499 108.802 39.7944L115.868 39.8936ZM110.358 59.5243L104.28 55.9184C102.764 58.4739 100.91 60.7902 98.7878 62.8145L103.665 67.9287C106.249 65.4645 108.508 62.642 110.358 59.5243ZM95.7778 73.7703L92.3081 67.6135C89.7522 69.0538 86.9973 70.1497 84.1141 70.8516L85.7856 77.7182C89.3065 76.8611 92.6656 75.5241 95.7778 73.7703ZM76.034 78.8213L76.1279 71.7548C74.6741 71.7355 73.2013 71.6174 71.7164 71.394C70.2314 71.1706 68.7891 70.8502 67.394 70.4409L65.4046 77.2223C67.1065 77.7215 68.8622 78.1113 70.665 78.3825C72.4679 78.6537 74.2606 78.7977 76.034 78.8213ZM56.4091 73.299L60.027 67.2281C57.4779 65.709 55.1673 63.8511 53.1483 61.7226L48.0208 66.5861C50.4792 69.1779 53.2963 71.444 56.4091 73.299ZM42.2011 58.6825L48.3674 55.2297C46.9342 52.6704 45.8442 49.9113 45.1471 47.0229L38.2771 48.6809C39.1276 52.2049 40.4565 55.5671 42.2011 58.6825ZM114.779 30.1404L107.909 31.7984C107.212 28.91 106.122 26.1509 104.688 23.5916L110.855 20.1388C112.599 23.2542 113.928 26.6164 114.779 30.1404ZM105.035 12.2352L99.9074 17.0987C97.8884 14.9702 95.5778 13.1123 93.0287 11.5932L96.6466 5.52233C99.7594 7.37731 102.577 9.6434 105.035 12.2352ZM87.6511 1.59901L85.6618 8.38036C84.2666 7.9711 82.8243 7.65066 81.3394 7.42728C79.8545 7.20389 78.3817 7.08581 76.9279 7.0665L77.0217 0C78.7952 0.0235597 80.5879 0.167585 82.3907 0.438791C84.1935 0.709997 85.9493 1.09977 87.6511 1.59901ZM67.2701 1.10314L68.9417 7.96974C66.0585 8.67159 63.3035 9.76747 60.7476 11.2078L57.278 5.05103C60.3902 3.2972 63.7493 1.96021 67.2701 1.10314ZM49.3905 10.8925L54.268 16.0068C52.1453 18.0311 50.2917 20.3474 48.7757 22.9029L42.6976 19.297C44.5473 16.1793 46.8066 13.3568 49.3905 10.8925ZM38.7866 28.298L45.5696 30.2822C45.1609 31.6793 44.8406 33.1235 44.6169 34.6102C44.3933 36.0969 44.2745 37.5714 44.254 39.0269L37.1875 38.9277C37.2124 37.1543 37.3571 35.3617 37.6283 33.5589C37.8995 31.7561 38.2886 30.0002 38.7866 28.298Z" fill="#C4A43B"/>
<path fill-rule="evenodd" clip-rule="evenodd" d="M97.6252 39.698C97.6252 51.271 88.2432 60.6528 76.67 60.6528C65.0968 60.6528 55.7148 51.271 55.7148 39.698C55.7148 28.125 65.0968 18.7432 76.67 18.7432C83.1478 18.7432 88.9391 21.6824 92.783 26.2999L97.6408 20.8865L103.862 26.4857L96.9012 34.2174C97.3733 35.9644 97.6252 37.8018 97.6252 39.698ZM101.076 26.6323L96.1897 32.0602C96.1895 32.0598 96.1894 32.0595 96.1893 32.0592L75.847 54.654L60.8086 41.095L63.6848 37.8901L75.5183 48.4908L97.7883 23.6737L97.789 23.6743L97.7896 23.6737L101.076 26.6318L101.077 26.632L101.076 26.6323Z" fill="#C4A43B"/>
</svg>
