<svg width="30" height="40" viewBox="0 0 30 40" fill="none" xmlns="http://www.w3.org/2000/svg">
<path d="M30 15C30 21.875 20.8594 33.9844 16.7969 39.0625C15.8594 40.2344 14.0625 40.2344 13.125 39.0625C9.0625 33.9844 0 21.875 0 15C0 6.71875 6.64062 0 15 0C23.2812 0 30 6.71875 30 15Z" fill="#061F51"/>
<path fill-rule="evenodd" clip-rule="evenodd" d="M27 15.1471C26.9924 15.687 26.9483 16.2328 26.8655 16.7818C26.7828 17.3307 26.6641 17.8653 26.5122 18.3836L24.4432 17.7795C24.5679 17.3541 24.6656 16.9143 24.7338 16.4617C24.802 16.009 24.8383 15.56 24.8445 15.1168L27 15.1471ZM25.3193 21.1243L23.4653 20.0264C23.0028 20.8045 22.4374 21.5098 21.7899 22.1262L23.2777 23.6834C24.0659 22.933 24.7551 22.0736 25.3193 21.1243ZM20.8718 25.462L19.8134 23.5874C19.0338 24.0259 18.1935 24.3596 17.314 24.5733L17.8239 26.6641C18.8979 26.4031 19.9225 25.996 20.8718 25.462ZM14.8494 27L14.878 24.8484C14.4345 24.8425 13.9853 24.8065 13.5323 24.7385C13.0794 24.6705 12.6394 24.5729 12.2139 24.4483L11.6071 26.5131C12.1262 26.6651 12.6617 26.7838 13.2117 26.8664C13.7616 26.949 14.3084 26.9928 14.8494 27ZM8.86318 25.3185L9.96674 23.47C9.18918 23.0075 8.48439 22.4418 7.86853 21.7937L6.30448 23.2745C7.05438 24.0637 7.91367 24.7537 8.86318 25.3185ZM4.52929 20.868L6.4102 19.8167C5.97305 19.0374 5.64056 18.1973 5.42792 17.3178L3.33237 17.8227C3.5918 18.8957 3.99715 19.9194 4.52929 20.868ZM26.6676 12.1773L24.5721 12.6822C24.3594 11.8027 24.027 10.9626 23.5898 10.1833L25.4707 9.13197C26.0028 10.0806 26.4082 11.1043 26.6676 12.1773ZM23.6955 6.72546L22.1315 8.20632C21.5156 7.55821 20.8108 6.99251 20.0333 6.52997L21.1368 4.68147C22.0863 5.24629 22.9456 5.93628 23.6955 6.72546ZM18.3929 3.48688L17.7861 5.55171C17.3606 5.42709 16.9206 5.32952 16.4677 5.2615C16.0147 5.19349 15.5655 5.15753 15.122 5.15165L15.1506 3C15.6916 3.00717 16.2384 3.05103 16.7883 3.13361C17.3383 3.21618 17.8738 3.33486 18.3929 3.48688ZM12.1761 3.33589L12.686 5.42667C11.8065 5.64038 10.9662 5.97406 10.1866 6.41262L9.1282 4.53797C10.0775 4.00395 11.1021 3.59686 12.1761 3.33589ZM6.72228 6.31663L8.21006 7.87384C7.56258 8.49023 6.99719 9.19551 6.53474 9.97361L4.68074 8.87568C5.24495 7.92636 5.9341 7.06696 6.72228 6.31663ZM3.48777 11.6164L5.55678 12.2205C5.43212 12.6459 5.33442 13.0857 5.2662 13.5383C5.19798 13.991 5.16174 14.44 5.15551 14.8832L3 14.8529C3.00759 14.313 3.05174 13.7672 3.13447 13.2182C3.2172 12.6693 3.33588 12.1347 3.48777 11.6164Z" fill="#C4A43B"/>
<path fill-rule="evenodd" clip-rule="evenodd" d="M21.49 14.958C21.49 18.4534 18.6564 21.2869 15.161 21.2869C11.6656 21.2869 8.83203 18.4534 8.83203 14.958C8.83203 11.4627 11.6656 8.62918 15.161 8.62918C17.1174 8.62918 18.8666 9.5169 20.0275 10.9115L21.4947 9.27652L23.3737 10.9676L21.2713 13.3028C21.4139 13.8304 21.49 14.3853 21.49 14.958ZM20.395 11.3988L14.818 17.6137L11.244 14.412L10.3753 15.38L14.9173 19.4751L22.5368 11.0118L21.5441 10.1183L21.5421 10.1205L21.5396 10.1183L20.3931 11.396C20.3937 11.3969 20.3944 11.3978 20.395 11.3988Z" fill="#C4A43B"/>
</svg>
