<svg width="34" height="25" viewBox="0 0 34 25" fill="none" xmlns="http://www.w3.org/2000/svg">
<path d="M13.7993 0H0.996094C0.445908 0 0 0.445908 0 0.996094V13.7993C0 14.3495 0.445908 14.7954 0.996094 14.7954H6.40146V23.4017C6.40146 23.9516 6.84737 24.3978 7.39755 24.3978H10.5985C11.0271 24.3978 11.4079 24.1234 11.5433 23.7166L14.744 14.1144C14.778 14.0128 14.7954 13.9064 14.7954 13.7993V0.996094C14.7954 0.445908 14.3495 0 13.7993 0V0ZM12.8032 13.6377L9.88052 22.4054H8.39365V13.7993C8.39365 13.2491 7.94774 12.8032 7.39755 12.8032H1.99219V1.99219H12.8032V13.6377Z" fill="#E3E3E3"/>
<path d="M33.0024 0H20.1992C19.649 0 19.2031 0.445908 19.2031 0.996094V13.7993C19.2031 14.3495 19.649 14.7954 20.1992 14.7954H25.6048V23.4017C25.6048 23.9516 26.0508 24.3978 26.6009 24.3978H29.8017C30.2305 24.3978 30.611 24.1234 30.7467 23.7166L33.9474 14.1144C33.9811 14.0128 33.9985 13.9064 33.9985 13.7993V0.996094C33.9985 0.445908 33.5526 0 33.0024 0ZM32.0063 13.6377L29.0836 22.4054H27.597V13.7993C27.597 13.2491 27.1509 12.8032 26.6009 12.8032H21.1953V1.99219H32.0063V13.6377Z" fill="#E3E3E3"/>
</svg>
